<svg width="36" height="36" viewBox="0 0 36 36" fill="none" xmlns="http://www.w3.org/2000/svg">
<path d="M20.875 19.5977C20.875 19.0454 20.4272 18.5977 19.875 18.5977C19.3227 18.5977 18.875 19.0454 18.875 19.5977H20.875ZM18.875 27.3719C18.875 27.9241 19.3227 28.3719 19.875 28.3719C20.4272 28.3719 20.875 27.9241 20.875 27.3719H18.875ZM22.625 27.3719C22.625 27.9241 23.0727 28.3719 23.625 28.3719C24.1772 28.3719 24.625 27.9241 24.625 27.3719H22.625ZM24.625 23.1095C24.625 22.5572 24.1772 22.1095 23.625 22.1095C23.0727 22.1095 22.625 22.5572 22.625 23.1095H24.625ZM23.6289 18.5977C23.0766 18.5977 22.6289 19.0454 22.6289 19.5977C22.6289 20.15 23.0766 20.5977 23.6289 20.5977V18.5977ZM26.925 19.5977L26.925 20.5977H26.925L26.925 19.5977ZM27.375 20.0477L28.375 20.0477V20.0477L27.375 20.0477ZM26.375 27.3719C26.375 27.9241 26.8227 28.3719 27.375 28.3719C27.9272 28.3719 28.375 27.9241 28.375 27.3719H26.375ZM9.12856 9.625H15.6332V7.625H9.12856V9.625ZM15.1336 9.12536V15.63H17.1336V9.12536H15.1336ZM15.6332 15.1304H9.12856V17.1304H15.6332V15.1304ZM9.6282 15.63V9.12536H7.6282V15.63H9.6282ZM9.12856 15.1304C9.40451 15.1304 9.6282 15.3541 9.6282 15.63H7.6282C7.6282 16.4586 8.29994 17.1304 9.12856 17.1304V15.1304ZM15.1336 15.63C15.1336 15.3541 15.3573 15.1304 15.6332 15.1304V17.1304C16.4619 17.1304 17.1336 16.4586 17.1336 15.63H15.1336ZM15.6332 9.625C15.3573 9.625 15.1336 9.4013 15.1336 9.12536H17.1336C17.1336 8.29673 16.4619 7.625 15.6332 7.625V9.625ZM9.12856 7.625C8.29994 7.625 7.6282 8.29673 7.6282 9.12536H9.6282C9.6282 9.4013 9.40451 9.625 9.12856 9.625V7.625ZM9.07481 20.8751H15.672V18.8751H9.07481V20.8751ZM15.1218 20.3249V26.922H17.1218V20.3249H15.1218ZM15.672 26.3719H9.07481V28.3719H15.672V26.3719ZM9.625 26.922V20.3249H7.625V26.922H9.625ZM9.07481 26.3719C9.37867 26.3719 9.625 26.6182 9.625 26.922H7.625C7.625 27.7228 8.2741 28.3719 9.07481 28.3719V26.3719ZM15.1218 26.922C15.1218 26.6182 15.3681 26.3719 15.672 26.3719V28.3719C16.4727 28.3719 17.1218 27.7228 17.1218 26.922H15.1218ZM15.672 20.8751C15.3681 20.8751 15.1218 20.6287 15.1218 20.3249H17.1218C17.1218 19.5242 16.4727 18.8751 15.672 18.8751V20.8751ZM9.07481 18.8751C8.2741 18.8751 7.625 19.5242 7.625 20.3249H9.625C9.625 20.6287 9.37867 20.8751 9.07481 20.8751V18.8751ZM20.325 9.62506H26.9131V7.62506H20.325V9.62506ZM26.3631 9.07506V15.6751H28.3631V9.07506H26.3631ZM26.9131 15.1251H20.325V17.1251H26.9131V15.1251ZM20.875 15.6751V9.07506H18.875V15.6751H20.875ZM20.325 15.1251C20.6288 15.1251 20.875 15.3713 20.875 15.6751H18.875C18.875 16.4759 19.5242 17.1251 20.325 17.1251V15.1251ZM26.3631 15.6751C26.3631 15.3713 26.6093 15.1251 26.9131 15.1251V17.1251C27.7139 17.1251 28.3631 16.4759 28.3631 15.6751H26.3631ZM26.9131 9.62506C26.6093 9.62506 26.3631 9.37882 26.3631 9.07506H28.3631C28.3631 8.27425 27.7139 7.62506 26.9131 7.62506V9.62506ZM20.325 7.62506C19.5242 7.62506 18.875 8.27425 18.875 9.07506H20.875C20.875 9.37882 20.6288 9.62506 20.325 9.62506V7.62506ZM18.875 19.5977V27.3719H20.875V19.5977H18.875ZM24.625 27.3719V23.1095H22.625V27.3719H24.625ZM23.6289 20.5977H26.925V18.5977H23.6289V20.5977ZM26.375 20.0477V27.3719H28.375V20.0477H26.375ZM26.925 20.5977C26.6212 20.5977 26.375 20.3515 26.375 20.0477L28.375 20.0477C28.375 19.2469 27.7258 18.5977 26.925 18.5977L26.925 20.5977Z" fill="white"/>
<path d="M22.5 11.25H24.75V13.5H22.5V11.25Z" fill="white"/>
<path d="M11.25 11.25H13.5V13.5H11.25V11.25Z" fill="white"/>
<path d="M11.25 22.5H13.5V24.75H11.25V22.5Z" fill="white"/>
<rect x="1" y="1" width="34" height="34" rx="7" stroke="white" stroke-width="2"/>
</svg>
